<svg xmlns="http://www.w3.org/2000/svg" width="13.278" height="11.484" viewBox="0 0 13.278 11.484">
  <g id="arrow" transform="translate(33.303 -22) rotate(90)">
    <g id="Group_9" data-name="Group 9" transform="translate(22 20.025)">
      <path id="Path_1" data-name="Path 1" d="M11.3,5.994.664.058a.755.755,0,0,0-.443,0A.465.465,0,0,0,0,.457v12.4a.465.465,0,0,0,.221.4.482.482,0,0,0,.221.044.338.338,0,0,0,.221-.089L11.251,6.747a.465.465,0,0,0,.221-.4.326.326,0,0,0-.177-.354Z" transform="translate(0 -0.025)" fill="#f8fafc" fill-rule="evenodd"/>
    </g>
  </g>
</svg>
