<svg xmlns="http://www.w3.org/2000/svg" width="263" height="263" viewBox="0 0 263 263">
  <g id="user" transform="translate(11761 12601)">
    <circle id="Ellipse_14" data-name="Ellipse 14" cx="131.5" cy="131.5" r="131.5" transform="translate(-11761 -12601)" fill="#fff"/>
    <g id="Group_47" data-name="Group 47">
      <path id="Intersection_1" data-name="Intersection 1" d="M38.4,224.371q-.4-4.355-.4-8.781a94,94,0,1,1,188,0q0,3.86-.306,7.669a132.019,132.019,0,0,1-24.851,19.993A72.74,72.74,0,1,0,66.46,245.816,131.97,131.97,0,0,1,38.4,224.371Z" transform="translate(-11761 -12601)" fill="#0097e6"/>
      <path id="Subtraction_1" data-name="Subtraction 1" d="M36.92,73.84A36.93,36.93,0,0,1,22.549,2.9,36.93,36.93,0,0,1,51.291,70.939,36.688,36.688,0,0,1,36.92,73.84ZM37.359,8.79A28.569,28.569,0,1,0,65.928,37.359,28.6,28.6,0,0,0,37.359,8.79Z" transform="translate(-11666 -12553)" fill="#0097e6"/>
    </g>
  </g>
</svg>
